<svg xmlns="http://www.w3.org/2000/svg" width="30" height="37.598" viewBox="0 0 30 37.598"><path d="M81.517,6.09,75.642.215A.735.735,0,0,0,75.123,0H52.466a.734.734,0,0,0-.734.734V36.863a.734.734,0,0,0,.734.734H81a.734.734,0,0,0,.734-.734V6.609A.734.734,0,0,0,81.517,6.09Zm-5.66-3.583,3.367,3.367H75.857ZM53.2,36.129V1.469H74.389v5.14a.734.734,0,0,0,.734.734h5.14V36.129Zm20.353-8.77a.734.734,0,0,1-.734.734H60.645a.734.734,0,1,1,0-1.469H72.819A.734.734,0,0,1,73.554,27.359Zm0,3.467a.734.734,0,0,1-.734.734H60.645a.734.734,0,1,1,0-1.469H72.819A.734.734,0,0,1,73.554,30.826Zm0-6.934a.734.734,0,0,1-.734.734H60.645a.734.734,0,1,1,0-1.469H72.819A.734.734,0,0,1,73.554,23.892ZM66.732,5.447a7.51,7.51,0,1,0,7.51,7.51A7.519,7.519,0,0,0,66.732,5.447Zm0,13.552a6.042,6.042,0,1,1,6.042-6.042A6.048,6.048,0,0,1,66.732,19Zm2.91-7.948a2.535,2.535,0,0,1-1.589,2.339c-.721.427-1.068.667-1.062,1.464a.734.734,0,0,1-.729.739h-.005a.734.734,0,0,1-.734-.729A2.944,2.944,0,0,1,67.3,12.126c.664-.393.878-.561.869-1.047a1.258,1.258,0,0,0-1.282-1.4,1.468,1.468,0,0,0-1.605,1.083.734.734,0,0,1-1.46-.157,2.908,2.908,0,0,1,3.13-2.394,2.731,2.731,0,0,1,2.686,2.835Zm-2.511,6.282a.875.875,0,1,1-.875-.862A.87.87,0,0,1,67.131,17.333Z" transform="translate(-51.732)" fill="#555a75"/></svg>