<svg xmlns="http://www.w3.org/2000/svg" width="30" height="27.268" viewBox="0 0 30 27.268"><path d="M17.111,39.166a.586.586,0,0,1-.586.586H7.411a.586.586,0,0,1,0-1.172h9.114A.586.586,0,0,1,17.111,39.166Zm-.586,2.618H7.411a.586.586,0,1,0,0,1.172h9.114a.586.586,0,1,0,0-1.172Zm0,3.2H7.411a.586.586,0,1,0,0,1.172h9.114a.586.586,0,1,0,0-1.172ZM29.689,31.66,24.41,40.8v9.186a.586.586,0,0,1-.586.586H3.216a.586.586,0,0,1-.586-.586V35.572H1.595A1.6,1.6,0,0,1,0,33.977V28.416a1.6,1.6,0,0,1,1.595-1.595H2.63v-2.93a.586.586,0,0,1,.586-.586H23.824a.586.586,0,0,1,.586.586v7.6l1.245-2.156a2.329,2.329,0,0,1,4.034,2.329ZM26.67,29.917l-.162.28,2,1.157.162-.28a1.157,1.157,0,1,0-2-1.157ZM19.605,44.361,21.3,43.2l-1.464-.845Zm8.321-11.992-2-1.157-5.76,9.977,2,1.157ZM1.595,34.4H20.041a.424.424,0,0,0,.423-.423V28.416a.424.424,0,0,0-.423-.423H1.595a.423.423,0,0,0-.423.423v5.561A.423.423,0,0,0,1.595,34.4Zm21.643,8.432-.365.632a.586.586,0,0,1-.175.19l-3.487,2.4a.6.6,0,0,1-.634.02.586.586,0,0,1-.281-.568l.468-4.145a.586.586,0,0,1,.075-.227l4.4-7.619V24.478H3.8v2.344h16.24a1.6,1.6,0,0,1,1.595,1.595v5.561a1.6,1.6,0,0,1-1.595,1.595H3.8V49.4H23.238v-6.57ZM5.492,29.842a.586.586,0,1,0,0-1.172H3.066a.586.586,0,0,0-.586.586v3.88a.586.586,0,0,0,.586.586H5.492a.586.586,0,0,0,0-1.172H3.652v-.768h1.1a.586.586,0,1,0,0-1.172h-1.1v-.768h1.84Zm4.3-1.075a.586.586,0,0,0-.812.165l-.8,1.2-.8-1.2a.586.586,0,1,0-.977.647L7.482,31.2l-1.07,1.617a.586.586,0,1,0,.977.647l.8-1.2.8,1.2a.586.586,0,0,0,.977-.647L8.887,31.2l1.07-1.617a.586.586,0,0,0-.165-.812Zm9.014-.048a.586.586,0,0,0-.632.1l-1.335,1.222L15.5,28.824a.586.586,0,0,0-.982.432v3.88a.586.586,0,1,0,1.172,0v-2.55l.75.686a.586.586,0,0,0,.791,0l.75-.686v2.55a.586.586,0,1,0,1.172,0v-3.88A.586.586,0,0,0,18.806,28.72ZM14.25,32.936a.586.586,0,1,1-1.1.4l-.232-.638H11.659l-.232.638a.586.586,0,1,1-1.1-.4l.368-1.012L10.7,31.9l1.035-2.844a.586.586,0,0,1,1.1,0L13.873,31.9l.008.023Zm-1.76-1.409-.2-.557-.2.557Z" transform="translate(0 -23.306)" fill="#555a75"/></svg>