<svg xmlns="http://www.w3.org/2000/svg" width="29" height="29" viewBox="0 0 29 29">
  <g id="Group_27406" data-name="Group 27406" transform="translate(-0.051 -0.341)">
    <g id="Ellipse_263" data-name="Ellipse 263" transform="translate(0.051 0.341)" fill="none" stroke="#00fe98" stroke-width="1">
      <circle cx="14.5" cy="14.5" r="14.5" stroke="none"/>
      <circle cx="14.5" cy="14.5" r="14" fill="none"/>
    </g>
    <path id="Icon_awesome-check-circle" data-name="Icon awesome-check-circle" d="M19.939,10.249A9.688,9.688,0,1,1,10.251.563,9.688,9.688,0,0,1,19.939,10.249ZM9.13,15.379l7.188-7.187a.625.625,0,0,0,0-.884l-.884-.884a.625.625,0,0,0-.884,0L8.688,12.285,5.951,9.549a.625.625,0,0,0-.884,0l-.884.884a.625.625,0,0,0,0,.884l4.063,4.062A.625.625,0,0,0,9.13,15.379Z" transform="translate(4.301 3.94)" fill="#00fe98"/>
  </g>
</svg>
