<svg xmlns="http://www.w3.org/2000/svg" xmlns:xlink="http://www.w3.org/1999/xlink" width="78.047" height="71.701" viewBox="0 0 78.047 71.701">
  <defs>
    <linearGradient id="linear-gradient" x1="-0.111" y1="-0.132" x2="2.116" y2="0.5" gradientUnits="objectBoundingBox">
      <stop offset="0" stop-color="#23317c"/>
      <stop offset="1" stop-color="#12193e"/>
    </linearGradient>
  </defs>
  <g id="Group_27368" data-name="Group 27368" transform="translate(-41 -52.648)">
    <rect id="Rectangle_9406" data-name="Rectangle 9406" width="71.701" height="78.047" rx="20" transform="translate(119.047 52.648) rotate(90)" fill="url(#linear-gradient)"/>
    <g id="Group_1" data-name="Group 1" transform="translate(57.535 67.648)">
      <path id="Path_2" data-name="Path 2" d="M757.293,802.669c.308-.942.6-1.872.949-2.784a12.164,12.164,0,0,0,.495-1.476.213.213,0,0,1,.249-.194q1.332.01,2.664,0c.172,0,.2.06.188.215-.127,2.3-.2,4.608-.19,6.915,0,.165-.031.233-.214.229-.52-.012-1.041-.013-1.561,0-.194.005-.233-.052-.224-.241.069-1.417.136-2.834.149-4.252a1.868,1.868,0,0,0-.056-.556c-.066.2-.134.391-.2.588-.459,1.4-.92,2.805-1.373,4.21-.058.181-.133.26-.337.253-.5-.017-1-.014-1.5,0-.19.005-.257-.052-.3-.242-.344-1.54-.7-3.078-1.058-4.616-.013-.058-.031-.114-.066-.246-.114.886-.155,1.7-.2,2.515q-.072,1.192-.119,2.384c-.006.161-.052.206-.211.2-.5-.01-1-.012-1.5,0-.191,0-.215-.066-.2-.231.279-2.3.442-4.609.6-6.92.01-.149.039-.211.206-.209.867.009,1.735.015,2.6,0,.246-.005.221.153.247.288C756.594,799.9,757.08,801.252,757.293,802.669Z" transform="translate(-752.675 -763.852)" fill="#fff"/>
      <path id="Path_3" data-name="Path 3" d="M1041.064,797.876c.922-.03,1.583-.048,2.247-.009a2.862,2.862,0,0,1,2.916,2.561,4.734,4.734,0,0,1-.309,2.727,3.118,3.118,0,0,1-2.706,2c-1.465.151-2.936.024-4.4.073-.183.006-.163-.1-.151-.213.152-1.421.211-2.847.257-4.274.028-.866.05-1.733.057-2.6,0-.213.056-.274.272-.27C1039.935,797.885,1040.629,797.876,1041.064,797.876Zm0,3.664c-.028.631-.055,1.262-.087,1.893-.007.131,0,.212.171.2.295-.016.591,0,.886-.021a1.748,1.748,0,0,0,1.648-1.013,3.01,3.01,0,0,0,.207-1.969,1.4,1.4,0,0,0-1.265-1.185,6.472,6.472,0,0,0-1.158-.014c-.235.012-.325.079-.326.335C1041.136,800.359,1041.091,800.949,1041.062,801.539Z" transform="translate(-1021.125 -763.508)" fill="#fff"/>
      <path id="Path_4" data-name="Path 4" d="M1353.937,805.617c-.744,0-1.489,0-2.234,0a.22.22,0,0,1-.252-.192c-.173-.564-.37-1.121-.545-1.685a.261.261,0,0,0-.3-.212q-1.133.016-2.266,0a.294.294,0,0,0-.319.205c-.254.567-.522,1.127-.783,1.691-.047.1-.077.194-.229.193-.784-.008-1.568,0-2.4,0,.168-.3.325-.555.464-.822,1.1-2.113,2.272-4.192,3.319-6.335a.3.3,0,0,1,.323-.2c.786.008,1.572.006,2.358,0,.134,0,.22.014.273.168.822,2.388,1.7,4.755,2.6,7.114C1353.951,805.563,1353.941,805.585,1353.937,805.617Zm-5.16-3.676c.532,0,1.01,0,1.489,0,.114,0,.171-.015.124-.153-.208-.611-.407-1.225-.629-1.9Z" transform="translate(-1308.332 -763.9)" fill="#fff"/>
      <path id="Path_5" data-name="Path 5" d="M923.9,798.238c.908,0,1.816.007,2.724-.005.218,0,.279.054.256.272a10.01,10.01,0,0,0-.057,1.069c0,.212-.061.275-.278.268-1.04-.034-2.081-.036-3.122-.019-.214,0-.291.063-.275.275a3.335,3.335,0,0,1-.015.459c-.03.5-.031.5.482.5.775,0,1.551,0,2.326-.007.186,0,.248.035.226.235-.041.375-.064.753-.069,1.13,0,.189-.059.239-.245.237-.867-.01-1.735,0-2.6-.009-.21,0-.287.053-.282.269a5.734,5.734,0,0,1-.039.855c-.027.208.053.235.229.231,1.051-.024,2.1-.029,3.152-.065.269-.009.322.057.288.313-.05.373-.06.752-.073,1.129-.005.145-.026.216-.2.216q-2.816-.009-5.632,0c-.227,0-.186-.122-.176-.252.068-.895.146-1.789.2-2.685.086-1.375.148-2.751.151-4.128,0-.247.07-.3.3-.3C922.085,798.246,922.993,798.238,923.9,798.238Z" transform="translate(-910.227 -763.872)" fill="#fff"/>
      <path id="Path_6" data-name="Path 6" d="M1243.48,801.968c-.087.567-.168,1.09-.245,1.613-.015.1-.039.163-.159.18a7.921,7.921,0,0,1-3.549-.06,3.173,3.173,0,0,1-2.474-2.622,3.746,3.746,0,0,1,1.289-3.742,5.288,5.288,0,0,1,3.845-.987c.376.025.75.089,1.126.121.2.017.243.113.246.3.007.418.031.836.061,1.253.011.162-.008.214-.193.171a6.585,6.585,0,0,0-1.7-.206,2.365,2.365,0,0,0-2.328,1.731,1.946,1.946,0,0,0,1.929,2.549A7.4,7.4,0,0,0,1243.48,801.968Z" transform="translate(-1207.309 -762.084)" fill="#fff"/>
      <path id="Path_7" data-name="Path 7" d="M1177.963,801.921c.046-1.141.086-2.283.064-3.425,0-.187.027-.268.243-.263.652.015,1.305.009,1.958,0,.161,0,.228.019.213.214-.176,2.288-.275,4.58-.272,6.875,0,.214-.053.276-.27.271-.632-.015-1.265-.016-1.9,0-.232.006-.287-.051-.269-.286C1177.821,804.18,1177.888,803.051,1177.963,801.921Z" transform="translate(-1151.684 -763.872)" fill="#fff"/>
      <g id="Group_6" data-name="Group 6" transform="translate(6.629)">
        <path id="Path_1" data-name="Path 1" d="M876.938,241.223a9.256,9.256,0,0,1,2.487-2.36,8.833,8.833,0,0,1,13.394,5.743,8.583,8.583,0,0,1-3.3,8.728c-.221.18-.226.246,0,.421a8.665,8.665,0,0,1,3.41,5.967,8.811,8.811,0,0,1-7.251,9.733,8.626,8.626,0,0,1-8.546-3.347c-.174-.217-.236-.2-.4.006a8.638,8.638,0,0,1-7.765,3.448,8.744,8.744,0,0,1-7.993-7.56,8.615,8.615,0,0,1,3.2-8.116c.4-.343.409-.331,0-.671a8.818,8.818,0,0,1,3.714-15.534,8.684,8.684,0,0,1,8.959,3.446C876.873,241.15,876.894,241.172,876.938,241.223Zm-1.63,17.1h0c0-.949-.01-1.9.006-2.847,0-.272-.079-.343-.343-.341-1.551.012-3.1.008-4.653.007a7.983,7.983,0,0,0-1.614.119,5.61,5.61,0,0,0-2.435,9.946,5.564,5.564,0,0,0,6.589.2,5.4,5.4,0,0,0,2.444-4.547C875.318,260.02,875.309,259.173,875.309,258.326Zm3.242-.042h0c0,.194-.008.388,0,.582a19.463,19.463,0,0,0,.1,2.95,5.572,5.572,0,0,0,6.761,4.415,5.6,5.6,0,0,0-.941-11.046c-1.877-.067-3.755-.076-5.633-.122-.25-.006-.3.081-.3.312C878.558,256.344,878.551,257.314,878.551,258.284Zm-3.238-9.441h0c0-.878,0-1.756,0-2.634a4.66,4.66,0,0,0-.08-.852,5.61,5.61,0,0,0-9.116-3.343,5.485,5.485,0,0,0-1.808,5.878,5.57,5.57,0,0,0,5.477,4.049c1.725.03,3.45.05,5.175.089.29.007.364-.092.359-.368C875.3,250.722,875.313,249.782,875.313,248.843Zm6.318,2.98a18.648,18.648,0,0,1,2.234.1,7.233,7.233,0,0,0,1.309-.094,5.6,5.6,0,1,0-6.611-5.75c-.047,1.825-.007,3.652-.013,5.478,0,.2.072.267.267.266C879.754,251.82,880.692,251.823,881.63,251.823Zm-3.566,11.9c-.143.311-.241.578-.384.819a.3.3,0,0,0,.043.44,1.185,1.185,0,0,1,.143.2,7.684,7.684,0,0,0,13.7-6.434,7.622,7.622,0,0,0-6.961-5.635c-1.835-.082-3.674-.091-5.511-.125-.64-.012-.5-.072-.539.528-.02.313.088.4.391.4,1.48.008,2.96.037,4.44.06a14.963,14.963,0,0,1,1.832.107,6.793,6.793,0,0,1,5.69,6.038,6.6,6.6,0,0,1-2.587,5.963,6.707,6.707,0,0,1-7.648.488A6.786,6.786,0,0,1,878.064,263.727Zm-2.231-20.384c.046-.113.091-.224.137-.335a1.99,1.99,0,0,1,.157-.363.483.483,0,0,0-.057-.632,7.515,7.515,0,0,0-7.641-3.24,7.616,7.616,0,0,0-6.4,7.571,7.533,7.533,0,0,0,3.05,6.095,6.429,6.429,0,0,0,1.893,1.087,10.061,10.061,0,0,0,3.462.463c1.489-.035,2.98-.012,4.47-.016.135,0,.292.041.339-.166.106-.474,0-.622-.477-.63-1.541-.026-3.081-.046-4.622-.081a9.669,9.669,0,0,1-1.828-.135,6.781,6.781,0,1,1,7.357-9.845C875.715,243.194,875.732,243.291,875.833,243.342Z" transform="translate(-860.861 -237.486)" fill="#fff"/>
        <path id="Path_14" data-name="Path 14" d="M953.219,556.035a3.713,3.713,0,1,1-3.722-3.7A3.7,3.7,0,0,1,953.219,556.035Z" transform="translate(-940.588 -533.041)" fill="#fff"/>
        <path id="Path_15" data-name="Path 15" d="M1183.585,552.077a3.721,3.721,0,1,1-3.744,3.718A3.7,3.7,0,0,1,1183.585,552.077Z" transform="translate(-1160.296 -532.8)" fill="#fff"/>
        <path id="Path_16" data-name="Path 16" d="M949.362,323.406a3.724,3.724,0,1,1-3.731,3.715A3.721,3.721,0,0,1,949.362,323.406Z" transform="translate(-940.436 -318.141)" fill="#fff"/>
        <path id="Path_17" data-name="Path 17" d="M1184.064,323.267a3.71,3.71,0,1,1-3.71,3.712A3.706,3.706,0,0,1,1184.064,323.267Z" transform="translate(-1160.776 -318.011)" fill="#fff"/>
      </g>
    </g>
  </g>
</svg>
