<svg xmlns="http://www.w3.org/2000/svg" width="30" height="30" viewBox="0 0 30 30"><g transform="translate(0)"><path d="M13.25,18.5A10.378,10.378,0,0,1,7.9,16.911,1.87,1.87,0,0,1,7,15.3V11.625a.625.625,0,1,1,1.25,0V15.3a.626.626,0,0,0,.286.534,8.54,8.54,0,0,0,9.426,0,.625.625,0,0,0,.288-.534V11.625a.625.625,0,1,1,1.25,0V15.3a1.87,1.87,0,0,1-.9,1.607A10.378,10.378,0,0,1,13.25,18.5Z" transform="translate(1.75 2.75)" fill="#555a75"/><path d="M13.75,15.75a.626.626,0,0,1-.262-.057l-8.125-3.75a.625.625,0,0,1,0-1.135l8.125-3.75a.622.622,0,0,1,.525,0l8.125,3.75a.625.625,0,0,1,0,1.135l-8.125,3.75a.626.626,0,0,1-.263.057ZM7.116,11.375l6.634,3.061,6.634-3.061L13.75,8.314Z" transform="translate(1.25 1.75)" fill="#555a75"/><path d="M.962,18.75a.626.626,0,0,1-.61-.489A14.991,14.991,0,0,1,27.066,6.119a.625.625,0,1,1-1.008.739A13.75,13.75,0,0,0,1.572,17.989a.624.624,0,0,1-.474.746A.641.641,0,0,1,.962,18.75Z" transform="translate(0)" fill="#555a75"/><path d="M14.437,27.75A15.007,15.007,0,0,1,2.371,21.631a.625.625,0,1,1,1.007-.739A13.736,13.736,0,0,0,28.187,12.75a12.888,12.888,0,0,0-.334-2.98.625.625,0,1,1,1.216-.289,14.127,14.127,0,0,1,.368,3.269,15.017,15.017,0,0,1-15,15Z" transform="translate(0.562 2.25)" fill="#555a75"/><path d="M2.688,25.5a.626.626,0,0,1-.625-.619L2,18.631a.624.624,0,0,1,.181-.445A.616.616,0,0,1,2.625,18h6.25a.625.625,0,1,1,0,1.25H3.256l.056,5.619a.625.625,0,0,1-.619.631H2.688Z" transform="translate(0.5 4.5)" fill="#555a75"/><path d="M22.875,7.5h-6.25a.625.625,0,1,1,0-1.25H22.25V.625a.625.625,0,1,1,1.25,0v6.25A.625.625,0,0,1,22.875,7.5Z" transform="translate(4)" fill="#555a75"/></g></svg>