<svg xmlns="http://www.w3.org/2000/svg" width="24.5" height="24.5" viewBox="0 0 24.5 24.5"><g transform="translate(0.25 0.25)"><path d="M12,0A12,12,0,1,0,24,12,11.993,11.993,0,0,0,12,0Zm0,22.326A10.326,10.326,0,1,1,22.326,12,10.337,10.337,0,0,1,12,22.326Z" fill="#555a75" stroke="#fff" stroke-width="0.5"/><g transform="translate(10.444 15.184)"><path d="M224.016,323.924a1.216,1.216,0,0,0,0,2.433,1.216,1.216,0,0,0,0-2.433Z" transform="translate(-222.815 -323.924)" fill="#555a75" stroke="#fff" stroke-width="0.5"/></g><g transform="translate(8.738 5.975)"><path d="M189.533,127.469c-2.132,0-3.112,1.264-3.112,2.117a.906.906,0,0,0,.948.9c.853,0,.505-1.216,2.117-1.216.79,0,1.422.348,1.422,1.074,0,.853-.885,1.343-1.406,1.785a2.891,2.891,0,0,0-1.058,2.4c0,.821.221,1.058.869,1.058.774,0,.932-.347.932-.648a1.984,1.984,0,0,1,.885-1.974,4.043,4.043,0,0,0,1.769-2.891C192.9,128.591,191.555,127.469,189.533,127.469Z" transform="translate(-186.421 -127.469)" fill="#555a75" stroke="#fff" stroke-width="0.5"/></g></g></svg>