<svg xmlns="http://www.w3.org/2000/svg" width="30" height="24.286" viewBox="0 0 30 24.286"><path d="M29.971,57.431,27.94,51.2a.586.586,0,0,0-.375-.376l-6.232-2.031a.586.586,0,0,0-.739.739l.474,1.454-1.986,1.986H3.335a1.3,1.3,0,0,0-1.3,1.3V69.186H.586A.586.586,0,0,0,0,69.772a3.281,3.281,0,0,0,3.277,3.277H24.163a3.281,3.281,0,0,0,3.277-3.277.586.586,0,0,0-.586-.586H25.793v-9.5l1.974-1.974.545.179L26.887,59.31a.586.586,0,1,0,.829.829l2.112-2.112a.586.586,0,0,0,.143-.6ZM24.163,71.877H3.277a2.109,2.109,0,0,1-2.022-1.519H26.186A2.109,2.109,0,0,1,24.163,71.877ZM3.21,69.186V54.268a.127.127,0,0,1,.125-.125H18.917l1.448,3.91a.586.586,0,0,0,.346.346l3.91,1.448v9.339ZM25.058,58.759,21.37,57.393,20,53.705l1.471-1.471,1.15,3.528a.586.586,0,0,0,.374.375L26.519,57.3Zm-1.41-3.641-1.582-4.854,4.852,1.582,1.588,4.872ZM17.02,61.157,11.4,57.91a.586.586,0,0,0-.879.507v6.494a.586.586,0,0,0,.879.507l5.624-3.247a.586.586,0,0,0,0-1.015ZM11.689,63.9V59.432l3.866,2.232Z" transform="translate(0 -48.763)" fill="#555a75"/></svg>