<svg xmlns="http://www.w3.org/2000/svg" width="22" height="24.002" viewBox="0 0 22 24.002">
  <g id="duration" transform="translate(-1)">
    <path id="Path_591" data-name="Path 591" d="M16.5,0A6.5,6.5,0,1,0,23,6.5,6.508,6.508,0,0,0,16.5,0Zm2.207,8.707a1,1,0,0,1-1.414,0l-1.5-1.5A1,1,0,0,1,15.5,6.5V4a1,1,0,1,1,2,0V6.086l1.207,1.207a1,1,0,0,1,0,1.414Z" fill="#fff"/>
    <path id="Path_592" data-name="Path 592" d="M19,14.63a8.591,8.591,0,0,1-2.5.37A8.5,8.5,0,0,1,11.02,0H4A3.009,3.009,0,0,0,1,3V17.5A3.106,3.106,0,0,0,4,20H7v3.25a.751.751,0,0,0,1.25.56L10,22.25l1.75,1.56A.752.752,0,0,0,13,23.25V20h5a1,1,0,0,0,1-1ZM7,18H4a1,1,0,0,1,0-2H7Zm10,0H13V16h4Z" fill="#fff"/>
  </g>
</svg>
