<svg id="language" xmlns="http://www.w3.org/2000/svg" width="22" height="22" viewBox="0 0 22 22">
  <path id="Path_722" data-name="Path 722" d="M134.3,316a5.8,5.8,0,0,0,3.1,2.823,9.863,9.863,0,0,1-.876-2.823Zm0,0" transform="translate(-128.526 -302.422)"/>
  <path id="Path_723" data-name="Path 723" d="M134.3,133.124h2.22a9.863,9.863,0,0,1,.876-2.823A5.8,5.8,0,0,0,134.3,133.124Zm0,0" transform="translate(-128.526 -124.702)"/>
  <path id="Path_724" data-name="Path 724" d="M218.066,121.113c-.014,0-.026,0-.04,0-.572.018-1.32,1.218-1.69,3.218h3.408c-.367-1.986-1.107-3.18-1.678-3.214Zm0,0" transform="translate(-207.04 -115.905)"/>
  <path id="Path_725" data-name="Path 725" d="M218.027,319.218c.014,0,.026,0,.04,0,.571-.034,1.311-1.227,1.678-3.214h-3.408C216.706,318,217.454,319.2,218.027,319.218Zm0,0" transform="translate(-207.04 -302.422)"/>
  <path id="Path_726" data-name="Path 726" d="M122.232,227.289c0-.429.018-.861.053-1.289H119.75a5.412,5.412,0,0,0,0,2.578h2.535C122.25,228.15,122.232,227.718,122.232,227.289Zm0,0" transform="translate(-114.455 -216.289)"/>
  <path id="Path_727" data-name="Path 727" d="M306.234,131.359a9.967,9.967,0,0,1,.851,2.778h2.1A5.814,5.814,0,0,0,306.234,131.359Zm0,0" transform="translate(-293.075 -125.715)"/>
  <path id="Path_728" data-name="Path 728" d="M329.83,227.289c0,.429-.018.861-.053,1.289h2.414a5.412,5.412,0,0,0,0-2.578h-2.414C329.812,226.428,329.83,226.86,329.83,227.289Zm0,0" transform="translate(-315.607 -216.289)"/>
  <path id="Path_729" data-name="Path 729" d="M22,11a11.112,11.112,0,1,0-5.3,9.359L22,22l-1.512-5.516A10.985,10.985,0,0,0,22,11ZM11.052,18.084c-.017,0-.034.006-.052.006l-.019,0-.041,0a7.09,7.09,0,1,1,0-14.18l.041,0,.019,0c.018,0,.034.005.052.006a7.085,7.085,0,0,1,0,14.168Zm0,0"/>
  <path id="Path_730" data-name="Path 730" d="M211.053,226c-.034.408-.054.837-.054,1.289s.019.881.054,1.289h3.76c.034-.408.054-.837.054-1.289s-.019-.881-.054-1.289Zm0,0" transform="translate(-201.934 -216.289)"/>
  <path id="Path_731" data-name="Path 731" d="M306.234,318.778a5.814,5.814,0,0,0,2.95-2.778h-2.1A9.969,9.969,0,0,1,306.234,318.778Zm0,0" transform="translate(-293.076 -302.422)"/>
</svg>
