<svg xmlns="http://www.w3.org/2000/svg" width="109" height="100.002" viewBox="0 0 109 100.002">
  <g id="Group_3621" data-name="Group 3621" transform="translate(-752.675 -237.486)">
    <path id="Path_2" data-name="Path 2" d="M763.71,808.864c.736-2.251,1.436-4.474,2.267-6.653a29.073,29.073,0,0,0,1.182-3.526.508.508,0,0,1,.6-.464q3.182.023,6.365,0c.41,0,.469.142.449.514-.3,5.5-.47,11.011-.455,16.523,0,.395-.073.558-.512.548-1.243-.028-2.488-.031-3.73,0-.465.012-.557-.124-.535-.575.164-3.385.326-6.771.356-10.161a4.465,4.465,0,0,0-.133-1.33c-.158.468-.319.935-.473,1.4-1.1,3.352-2.2,6.7-3.28,10.06-.139.432-.317.621-.806.6-1.193-.042-2.39-.034-3.584,0-.453.012-.613-.125-.715-.578-.823-3.681-1.68-7.354-2.528-11.03-.032-.138-.073-.273-.158-.588-.271,2.117-.37,4.064-.487,6.01q-.171,2.847-.284,5.7c-.015.385-.124.493-.5.486-1.194-.023-2.39-.029-3.584,0-.456.012-.515-.158-.467-.552.666-5.495,1.055-11.014,1.428-16.535.024-.357.093-.5.492-.5,2.073.02,4.146.035,6.218-.007.587-.012.529.366.589.688C762.038,802.25,763.2,805.476,763.71,808.864Z" transform="translate(0 -478.621)" fill="#fff"/>
    <path id="Path_3" data-name="Path 3" d="M1044.419,797.919c2.2-.071,3.784-.115,5.37-.021,3.9.229,6.29,2.3,6.967,6.12a11.317,11.317,0,0,1-.739,6.516,7.451,7.451,0,0,1-6.467,4.778c-3.5.361-7.016.058-10.522.174-.437.014-.39-.232-.36-.51.362-3.4.5-6.8.613-10.214.066-2.07.119-4.141.137-6.213,0-.509.134-.655.651-.644C1041.723,797.941,1043.381,797.919,1044.419,797.919Zm0,8.754c-.068,1.508-.13,3.016-.208,4.523-.016.313.01.507.409.484.7-.039,1.412-.01,2.117-.051a4.177,4.177,0,0,0,3.939-2.419,7.188,7.188,0,0,0,.494-4.705,3.353,3.353,0,0,0-3.023-2.831,15.464,15.464,0,0,0-2.767-.033c-.562.029-.776.188-.779.8C1044.591,803.853,1044.484,805.263,1044.416,806.674Z" transform="translate(-244.099 -478.308)" fill="#fff"/>
    <path id="Path_4" data-name="Path 4" d="M1366.908,815.837c-1.777,0-3.557-.009-5.337.007a.526.526,0,0,1-.6-.458c-.413-1.348-.884-2.679-1.3-4.026a.623.623,0,0,0-.727-.506q-2.707.037-5.416,0a.7.7,0,0,0-.763.49c-.606,1.355-1.249,2.693-1.872,4.041-.113.244-.184.464-.547.46-1.874-.02-3.748-.009-5.738-.009.4-.709.776-1.326,1.11-1.964,2.637-5.049,5.429-10.017,7.931-15.137a.719.719,0,0,1,.772-.473c1.878.02,3.757.014,5.635,0,.319,0,.526.035.653.4,1.965,5.706,4.064,11.363,6.221,17C1366.94,815.707,1366.917,815.761,1366.908,815.837Zm-12.329-8.784c1.271,0,2.414,0,3.557,0,.273,0,.408-.036.3-.367-.5-1.46-.973-2.927-1.5-4.534Z" transform="translate(-505.254 -478.664)" fill="#fff"/>
    <path id="Path_5" data-name="Path 5" d="M928.612,798.246c2.17,0,4.34.017,6.51-.012.522-.007.668.128.613.649a23.924,23.924,0,0,0-.136,2.554c0,.507-.147.658-.664.641-2.486-.082-4.972-.087-7.46-.045-.51.009-.7.149-.656.657a7.964,7.964,0,0,1-.035,1.1c-.073,1.19-.075,1.2,1.153,1.2,1.853,0,3.706.009,5.559-.017.444-.006.592.085.54.562-.1.9-.154,1.8-.166,2.7-.006.451-.14.57-.586.565-2.072-.024-4.145.006-6.217-.022-.5-.007-.686.127-.675.642a13.707,13.707,0,0,1-.093,2.044c-.064.5.126.561.548.552,2.51-.057,5.022-.069,7.531-.155.642-.022.77.136.688.749-.119.892-.143,1.8-.176,2.7-.012.346-.063.517-.478.516q-6.729-.022-13.459,0c-.542,0-.444-.292-.42-.6.162-2.138.349-4.275.483-6.415.205-3.285.353-6.573.36-9.865,0-.589.166-.717.725-.709C924.271,798.265,926.442,798.246,928.612,798.246Z" transform="translate(-143.261 -478.639)" fill="#fff"/>
    <path id="Path_6" data-name="Path 6" d="M1252.5,809.8c-.207,1.355-.4,2.6-.586,3.854-.035.237-.092.388-.379.43-2.836.414-5.681.726-8.481-.143-3.126-.97-5.4-2.847-5.912-6.264-.525-3.488.2-6.626,3.08-8.943,2.689-2.163,5.871-2.579,9.189-2.359.9.06,1.791.214,2.69.289.473.04.581.269.588.706.016,1,.074,2,.145,2.995.027.386-.02.511-.461.409a15.734,15.734,0,0,0-4.052-.491,5.65,5.65,0,0,0-5.562,4.136c-.854,3.286,1.152,5.938,4.611,6.091A17.664,17.664,0,0,0,1252.5,809.8Z" transform="translate(-413.395 -477.013)" fill="#fff"/>
    <path id="Path_7" data-name="Path 7" d="M1178.286,807.047c.11-2.728.206-5.455.153-8.185-.009-.446.065-.641.58-.629,1.559.036,3.119.022,4.678.006.385,0,.544.045.508.51-.42,5.468-.657,10.944-.651,16.428,0,.51-.128.659-.644.647-1.51-.035-3.022-.038-4.532,0-.553.014-.686-.121-.642-.685C1177.948,812.445,1178.108,809.745,1178.286,807.047Z" transform="translate(-362.815 -478.639)" fill="#fff"/>
    <g id="Group_6" data-name="Group 6">
      <path id="Path_1" data-name="Path 1" d="M899.279,246.416a22.119,22.119,0,0,1,5.943-5.639c12.441-7.953,29.331-.76,32,13.723,1.563,8.469-1.21,15.442-7.885,20.857-.529.429-.539.587,0,1.006a20.705,20.705,0,0,1,8.15,14.258,21.053,21.053,0,0,1-17.327,23.257c-8.317,1.3-15.145-1.441-20.42-8-.416-.518-.564-.484-.956.013a20.642,20.642,0,0,1-18.555,8.239,20.9,20.9,0,0,1-19.1-18.064c-1.033-7.84,1.644-14.3,7.657-19.395.967-.82.977-.792,0-1.6a21.072,21.072,0,0,1,8.875-37.118c8.77-1.618,15.909,1.232,21.409,8.233C899.123,246.241,899.173,246.294,899.279,246.416Zm-3.894,40.868h.01c0-2.268-.024-4.536.015-6.8.012-.651-.19-.82-.821-.816-3.706.028-7.412.019-11.118.017a19.069,19.069,0,0,0-3.857.285c-5.59,1.149-9.289,4.48-10.612,10.014a12.75,12.75,0,0,0,4.793,13.753,13.3,13.3,0,0,0,15.744.487,12.9,12.9,0,0,0,5.84-10.865C895.408,291.332,895.385,289.308,895.385,287.284Zm7.747-.1h.006c0,.463-.018.928,0,1.39.109,2.348-.223,4.7.243,7.05a13.315,13.315,0,0,0,16.155,10.55,13.374,13.374,0,0,0-2.248-26.4c-4.484-.16-8.974-.182-13.46-.292-.6-.015-.718.194-.711.745C903.149,282.549,903.132,284.867,903.132,287.185Zm-7.737-22.56h-.011c0-2.1-.01-4.2.006-6.294a11.134,11.134,0,0,0-.192-2.036,13.406,13.406,0,0,0-21.782-7.989,13.106,13.106,0,0,0-4.32,14.045c1.971,6.393,7.175,9.574,13.089,9.675,4.122.071,8.244.119,12.365.212.694.016.869-.22.858-.881C895.373,269.114,895.395,266.869,895.395,264.625Zm15.1,7.121a44.577,44.577,0,0,1,5.337.246,17.287,17.287,0,0,0,3.127-.226,13.383,13.383,0,1,0-15.8-13.74c-.113,4.361-.018,8.727-.032,13.091,0,.482.171.639.639.635C906.007,271.738,908.249,271.746,910.491,271.746Zm-8.522,28.444c-.342.744-.577,1.382-.917,1.956a.719.719,0,0,0,.1,1.052,2.824,2.824,0,0,1,.341.473,18.361,18.361,0,0,0,32.74-15.374A18.213,18.213,0,0,0,917.6,274.833c-4.385-.2-8.778-.218-13.168-.3-1.529-.028-1.2-.172-1.287,1.262-.047.749.21.948.935.952,3.537.019,7.073.089,10.61.142a35.758,35.758,0,0,1,4.377.255c7.069.977,13.13,7.321,13.6,14.427a15.766,15.766,0,0,1-6.181,14.25,16.028,16.028,0,0,1-18.276,1.167A16.217,16.217,0,0,1,901.969,300.19Zm-5.332-48.71c.11-.27.218-.535.327-.8a4.751,4.751,0,0,1,.375-.869,1.155,1.155,0,0,0-.135-1.51c-4.563-6.184-10.636-8.91-18.259-7.742a18.2,18.2,0,0,0-15.295,18.092,18,18,0,0,0,7.288,14.563,15.366,15.366,0,0,0,4.523,2.6,24.042,24.042,0,0,0,8.272,1.107c3.558-.084,7.12-.028,10.681-.038.323,0,.7.1.81-.4.254-1.133,0-1.485-1.14-1.5-3.681-.063-7.363-.109-11.044-.193a23.1,23.1,0,0,1-4.369-.322,16.2,16.2,0,1,1,17.58-23.526C896.355,251.125,896.4,251.359,896.637,251.48Z" transform="translate(-92.344)" fill="#fff"/>
      <path id="Path_14" data-name="Path 14" d="M963.538,561.179a8.873,8.873,0,1,1-8.894-8.845A8.843,8.843,0,0,1,963.538,561.179Z" transform="translate(-164.84 -268.746)" fill="#fff"/>
      <path id="Path_15" data-name="Path 15" d="M1188.787,552.077a8.892,8.892,0,1,1-8.945,8.883A8.841,8.841,0,0,1,1188.787,552.077Z" transform="translate(-364.618 -268.527)" fill="#fff"/>
      <path id="Path_16" data-name="Path 16" d="M954.547,323.406a8.9,8.9,0,1,1-8.917,8.878A8.892,8.892,0,0,1,954.547,323.406Z" transform="translate(-164.701 -73.339)" fill="#fff"/>
      <path id="Path_17" data-name="Path 17" d="M1189.218,323.267a8.866,8.866,0,1,1-8.864,8.87A8.856,8.856,0,0,1,1189.218,323.267Z" transform="translate(-365.055 -73.221)" fill="#fff"/>
    </g>
  </g>
</svg>
