<svg xmlns="http://www.w3.org/2000/svg" width="22" height="28.113" viewBox="0 0 22 28.113">
  <g id="quality" transform="translate(-55.666)">
    <g id="Group_27060" data-name="Group 27060" transform="translate(58.032 21.465)">
      <g id="Group_27059" data-name="Group 27059" transform="translate(0)">
        <path id="Path_718" data-name="Path 718" d="M105.8,391.421a3.493,3.493,0,0,1-3.956.592,3.6,3.6,0,0,1-1.217-.944l-1.831,4.049a.352.352,0,0,0,.415.484l1.333-.371a1.7,1.7,0,0,1,1.986.9l.6,1.246a.352.352,0,0,0,.638-.008l2.912-6.441A2.185,2.185,0,0,0,105.8,391.421Z" transform="translate(-98.758 -390.926)"/>
      </g>
    </g>
    <g id="Group_27062" data-name="Group 27062" transform="translate(67.381 21.465)">
      <g id="Group_27061" data-name="Group 27061">
        <path id="Path_719" data-name="Path 719" d="M276.907,395.118l-1.831-4.049a3.6,3.6,0,0,1-1.217.944,3.493,3.493,0,0,1-3.956-.592,2.185,2.185,0,0,0-.881-.5l2.912,6.441a.352.352,0,0,0,.638.008l.6-1.246a1.7,1.7,0,0,1,1.986-.9l1.333.371a.352.352,0,0,0,.415-.484Z" transform="translate(-269.022 -390.926)"/>
      </g>
    </g>
    <g id="Group_27064" data-name="Group 27064" transform="translate(55.666)">
      <g id="Group_27063" data-name="Group 27063" transform="translate(0)">
        <path id="Path_720" data-name="Path 720" d="M76.7,11.409A3.574,3.574,0,0,1,75.631,6.7a2.208,2.208,0,0,0-2.561-3.212A3.574,3.574,0,0,1,68.721,1.4a2.208,2.208,0,0,0-4.108,0,3.574,3.574,0,0,1-4.349,2.094A2.208,2.208,0,0,0,57.7,6.7a3.574,3.574,0,0,1-1.074,4.706,2.208,2.208,0,0,0,.914,4.005,3.574,3.574,0,0,1,3.009,3.774,2.208,2.208,0,0,0,3.7,1.783,3.574,3.574,0,0,1,4.827,0,2.208,2.208,0,0,0,3.7-1.783,3.574,3.574,0,0,1,3.009-3.774,2.208,2.208,0,0,0,.914-4.005ZM66.666,18.445a7.227,7.227,0,1,1,7.227-7.227A7.235,7.235,0,0,1,66.666,18.445Z" transform="translate(-55.666)"/>
      </g>
    </g>
    <g id="Group_27066" data-name="Group 27066" transform="translate(60.787 5.338)">
      <g id="Group_27065" data-name="Group 27065" transform="translate(0)">
        <path id="Path_721" data-name="Path 721" d="M154.8,97.225a5.88,5.88,0,1,0,5.88,5.88A5.886,5.886,0,0,0,154.8,97.225Zm3.013,5.309-3.659,2.673a.674.674,0,0,1-.949-.157l-1.095-1.558a.674.674,0,1,1,1.1-.775l.7,1,3.1-2.268a.674.674,0,1,1,.795,1.088Z" transform="translate(-148.92 -97.225)"/>
      </g>
    </g>
  </g>
</svg>
