<svg xmlns="http://www.w3.org/2000/svg" width="22" height="19.537" viewBox="0 0 22 19.537">
  <g id="video-lesson" transform="translate(-3 -6.7)">
    <g id="Group_3705" data-name="Group 3705" transform="translate(3 6.7)">
      <g id="Group_3704" data-name="Group 3704" transform="translate(0 0)">
        <g id="Group_3701" data-name="Group 3701">
          <path id="Path_608" data-name="Path 608" d="M23.6,6.7H4.365A1.343,1.343,0,0,0,3,8.031V20.512a1.371,1.371,0,0,0,1.365,1.365H23.635A1.371,1.371,0,0,0,25,20.512V8.031A1.394,1.394,0,0,0,23.6,6.7ZM13.983,19.78a5.525,5.525,0,1,1,5.525-5.525A5.533,5.533,0,0,1,13.983,19.78Z" transform="translate(-3 -6.7)" fill="#fff"/>
        </g>
        <g id="Group_3703" data-name="Group 3703" transform="translate(8.787 4.967)">
          <g id="Group_3702" data-name="Group 3702" transform="translate(0 0)">
            <path id="Path_609" data-name="Path 609" d="M34.093,24.246a.99.99,0,0,1-.466.832l-2.762,1.664a.939.939,0,0,1-.5.133.764.764,0,0,1-.466-.133.981.981,0,0,1-.5-.832V22.582a.915.915,0,0,1,.5-.832,1,1,0,0,1,.965,0l2.762,1.664A.912.912,0,0,1,34.093,24.246Z" transform="translate(-29.4 -21.625)" fill="#fff"/>
          </g>
        </g>
      </g>
    </g>
    <g id="Group_3706" data-name="Group 3706" transform="translate(3.3 23.641)">
      <path id="Path_610" data-name="Path 610" d="M25.567,58.9a.334.334,0,0,1-.333.333H9.292a1.586,1.586,0,0,1-1.564.965,1.617,1.617,0,0,1-1.564-.965H4.233A.334.334,0,0,1,3.9,58.9a.314.314,0,0,1,.333-.333h1.93A1.555,1.555,0,0,1,7.728,57.6a1.586,1.586,0,0,1,1.564.965H25.234A.314.314,0,0,1,25.567,58.9Z" transform="translate(-3.9 -57.6)" fill="#fff"/>
    </g>
  </g>
</svg>
