<svg xmlns="http://www.w3.org/2000/svg" width="30" height="20.002" viewBox="0 0 30 20.002">
  <g id="Video_Learning" data-name="Video Learning" transform="translate(-5 -14)">
    <path id="Path_713" data-name="Path 713" d="M25.056,25.522h7.222a.556.556,0,0,0,.556-.556V19.411a.556.556,0,0,0-.556-.556H25.056a.556.556,0,0,0-.556.556v5.556a.556.556,0,0,0,.556.556Zm1.337-4.888a.945.945,0,0,1,1.436-.807l2.553,1.555a.945.945,0,0,1,0,1.613L27.828,24.55a.945.945,0,0,1-1.436-.807Z" transform="translate(-8.667 -2.158)" fill="#12193e"/>
    <path id="Path_714" data-name="Path 714" d="M29.906,22.589v2.518l2.066-1.259Z" transform="translate(-11.069 -3.817)" fill="#12193e"/>
    <circle id="Ellipse_12421" data-name="Ellipse 12421" cx="0.556" cy="0.556" r="0.556" transform="translate(13.889 26.142)" fill="#12193e"/>
    <path id="Path_715" data-name="Path 715" d="M33.877,14H9a.827.827,0,0,0-.761.883V29.361h8.417a1.709,1.709,0,0,1,.911.267,1.926,1.926,0,0,0,.7.322h6.344a.924.924,0,0,0,.567-.144,1.657,1.657,0,0,1,1.128-.428l8.333-.017V14.883A.827.827,0,0,0,33.877,14ZM16.161,17.253a1.668,1.668,0,0,1,1.667-1.667h7.222a1.668,1.668,0,0,1,1.667,1.667v5.556a1.668,1.668,0,0,1-1.667,1.667H17.827a1.668,1.668,0,0,1-1.667-1.667Zm14.722,10H17.447a1.657,1.657,0,0,1-3.129,0H11.994a.556.556,0,1,1,0-1.111h2.325a1.657,1.657,0,0,1,3.129,0H30.883a.556.556,0,1,1,0,1.111Z" transform="translate(-1.438)" fill="#12193e"/>
    <path id="Path_716" data-name="Path 716" d="M35,44.311a2.986,2.986,0,0,1-3.094,2.867H8.094a3.224,3.224,0,0,1-2.189-.839A2.754,2.754,0,0,1,5,44.311a.69.69,0,0,1,.717-.661h9.5a.593.593,0,0,1,.306.089,2.8,2.8,0,0,0,1.306.5h6.344a2,2,0,0,0,1.322-.439.53.53,0,0,1,.372-.133L33.2,43.65h1.083a.69.69,0,0,1,.717.661Z" transform="translate(0 -13.177)" fill="#12193e"/>
  </g>
</svg>
